HIERARCHY
ROOT Hips
{
	OFFSET -0.001795 -0.223333 0.028219
	CHANNELS 6 Xposition Yposition Zposition Zrotation Yrotation Xrotation 
	JOINT LeftUpLeg
	{
		OFFSET 0.069520 -0.091406 -0.006815
		CHANNELS 3 Zrotation Yrotation Xrotation
		JOINT LeftLeg
		{
			OFFSET 0.034277 -0.375199 -0.004496
			CHANNELS 3 Zrotation Yrotation Xrotation
			JOINT LeftFoot
			{
				OFFSET -0.013596 -0.397961 -0.043693
				CHANNELS 3 Zrotation Yrotation Xrotation
				JOINT LeftToe
				{
					OFFSET 0.026358 -0.055791 0.119288
					CHANNELS 3 Zrotation Yrotation Xrotation
					End Site
					{
						OFFSET 0.000000 0.000000 0.000000
					}
				}
			}
		}
	}
	JOINT RightUpLeg
	{
		OFFSET -0.067670 -0.090522 -0.004320
		CHANNELS 3 Zrotation Yrotation Xrotation
		JOINT RightLeg
		{
			OFFSET -0.038290 -0.382569 -0.008850
			CHANNELS 3 Zrotation Yrotation Xrotation
			JOINT RightFoot
			{
				OFFSET 0.015774 -0.398415 -0.042312
				CHANNELS 3 Zrotation Yrotation Xrotation
				JOINT RightToe
				{
					OFFSET -0.025372 -0.048144 0.123348
					CHANNELS 3 Zrotation Yrotation Xrotation
					End Site
					{
						OFFSET 0.000000 0.000000 0.000000
					}
				}
			}
		}
	}
	JOINT Spine
	{
		OFFSET -0.002533 0.108963 -0.026696
		CHANNELS 3 Zrotation Yrotation Xrotation
		JOINT Spine1
		{
			OFFSET 0.005487 0.135180 0.001092
			CHANNELS 3 Zrotation Yrotation Xrotation
			JOINT Spine2
			{
				OFFSET 0.001457 0.052922 0.025425
				CHANNELS 3 Zrotation Yrotation Xrotation
				JOINT Neck
				{
					OFFSET -0.002778 0.213870 -0.042857
					CHANNELS 3 Zrotation Yrotation Xrotation
					JOINT Head
					{
						OFFSET 0.005152 0.064970 0.051349
						CHANNELS 3 Zrotation Yrotation Xrotation
						End Site
						{
							OFFSET 0.000000 0.000000 0.000000
						}
					}
				}
				JOINT LeftShoulder
				{
					OFFSET 0.078845 0.121749 -0.034090
					CHANNELS 3 Zrotation Yrotation Xrotation
					JOINT LeftArm
					{
						OFFSET 0.090977 0.030469 -0.008868
						CHANNELS 3 Zrotation Yrotation Xrotation
						JOINT LeftForeArm
						{
							OFFSET 0.259612 -0.012772 -0.027456
							CHANNELS 3 Zrotation Yrotation Xrotation
							JOINT LeftHand
							{
								OFFSET 0.249234 0.008986 -0.001171
								CHANNELS 3 Zrotation Yrotation Xrotation
								End Site
								{
									OFFSET 0.000000 0.000000 0.000000
								}
							}
						}
					}
				}
				JOINT RightShoulder
				{
					OFFSET -0.081759 0.118833 -0.038615
					CHANNELS 3 Zrotation Yrotation Xrotation
					JOINT RightArm
					{
						OFFSET -0.096012 0.032551 -0.009143
						CHANNELS 3 Zrotation Yrotation Xrotation
						JOINT RightForeArm
						{
							OFFSET -0.253742 -0.013329 -0.021401
							CHANNELS 3 Zrotation Yrotation Xrotation
							JOINT RightHand
							{
								OFFSET -0.255298 0.007772 -0.005559
								CHANNELS 3 Zrotation Yrotation Xrotation
								End Site
								{
									OFFSET 0.000000 0.000000 0.000000
								}
							}
						}
					}
				}
			}
		}
	}
}
MOTION
Frames: 14
Frame Time: 0.050000
2.816061 0.898791 -0.189639 -1.839682 -57.519409 4.242521 12.572715 3.908468 -12.595260 -1.351913 5.829837 25.610203 2.726608 11.313471 -11.697573 0.000000 0.000000 0.000000 -12.321411 6.632284 -34.219833 10.779527 1.697938 20.247757 -14.456108 -32.686097 31.155777 0.000000 0.000000 0.000000 -1.821342 5.259597 31.732414 5.748374 -1.237594 5.182254 1.406158 -11.081733 7.484856 -5.800438 0.597365 -25.487957 0.000000 0.000000 0.000000 -4.538283 -29.307848 16.511435 -18.951904 -41.461295 4.097513 64.942095 -37.751924 -17.279136 0.000000 0.000000 0.000000 11.647251 42.882155 10.358704 24.753423 25.366040 3.955542 -79.286772 78.349598 -80.234350 0.000000 0.000000 0.000000 
2.852394 0.904467 -0.181372 -1.907591 -56.755983 4.546935 11.312044 3.777738 -14.893165 -2.354460 6.219385 25.708398 2.677331 10.749555 -11.641507 0.000000 0.000000 0.000000 -13.950035 6.130089 -33.109874 9.235150 1.155662 15.547017 -12.250181 -30.455071 32.591233 0.000000 0.000000 0.000000 -1.953938 5.374934 32.156988 5.748824 -1.333905 4.873043 0.777909 -9.391214 7.458756 -4.769478 0.365610 -23.678292 0.000000 0.000000 0.000000 -3.779763 -29.729331 15.948047 -18.420773 -39.851593 3.579234 70.595223 -40.736977 -21.179959 0.000000 0.000000 0.000000 8.756082 40.597675 10.120193 24.724423 27.608151 3.611074 -92.067226 71.817899 -85.715064 0.000000 0.000000 0.000000 
2.883004 0.910627 -0.174886 -0.872302 -55.353534 2.928152 9.230112 3.084489 -16.134509 -2.471394 6.165165 25.973258 2.663438 9.975461 -10.684545 0.000000 0.000000 0.000000 -14.882261 5.377471 -30.970330 7.190267 0.856188 12.409333 -10.765201 -28.899541 33.762969 0.000000 0.000000 0.000000 -1.683668 5.688486 33.849515 5.586645 -1.255003 6.001768 0.536751 -8.900064 6.171183 -4.244299 0.427933 -21.971539 0.000000 0.000000 0.000000 -2.239803 -29.883592 14.839207 -17.760193 -36.319025 2.836955 78.577500 -39.765979 -23.621894 0.000000 0.000000 0.000000 4.821708 39.090355 10.207973 21.848738 29.751201 2.792875 -88.997609 62.942212 -72.876214 0.000000 0.000000 0.000000 
2.906995 0.916465 -0.171724 -0.824266 -53.061152 2.960273 7.724887 2.634490 -17.697716 -2.143996 5.461828 25.453851 2.481076 8.625144 -9.467500 0.000000 0.000000 0.000000 -16.342264 4.918698 -29.918820 7.821552 0.706651 11.942893 -10.897437 -28.865615 34.590290 0.000000 0.000000 0.000000 -1.714008 5.258804 33.502451 5.336301 -1.115250 6.835373 1.050756 -6.942058 5.440605 -5.021992 1.376291 -19.184375 0.000000 0.000000 0.000000 -2.358773 -29.928408 14.491030 -14.015986 -31.660521 1.159256 83.155632 -35.985235 -22.863024 0.000000 0.000000 0.000000 0.337325 36.079303 9.862466 17.935233 31.596788 1.552180 -84.122089 54.593381 -58.805736 0.000000 0.000000 0.000000 
2.924946 0.922521 -0.171286 -0.895288 -51.095692 3.628392 6.494228 2.148380 -18.357913 -1.971571 4.353181 22.968586 2.466773 7.961509 -7.954783 0.000000 0.000000 0.000000 -16.531921 5.017925 -31.287211 8.827363 1.366087 19.745680 -10.602897 -28.987698 32.497172 0.000000 0.000000 0.000000 -1.139231 4.586398 32.720131 4.467772 -0.828430 6.556971 1.365798 -5.121209 6.774373 -4.507799 1.398596 -16.773814 0.000000 0.000000 0.000000 3.904980 -28.026148 10.580603 -13.183621 -29.242422 1.045009 80.154205 -28.445368 -14.945182 0.000000 0.000000 0.000000 -6.701429 32.285034 9.290256 14.451891 34.140514 0.044621 -80.065779 45.505951 -47.118606 0.000000 0.000000 0.000000 
2.938450 0.927027 -0.172766 -0.114806 -48.789372 3.787147 5.104579 1.595311 -18.986830 -1.956267 3.413827 20.453413 2.290392 6.893221 -6.408425 0.000000 0.000000 0.000000 -15.527854 4.821099 -31.223218 10.153199 2.451633 28.945777 -7.895385 -25.531952 23.597381 0.000000 0.000000 0.000000 -0.454506 3.667138 31.257342 4.684515 -0.635575 8.799788 0.325868 -3.814117 5.408100 -3.529891 1.275719 -14.042830 0.000000 0.000000 0.000000 9.582752 -27.109137 7.864501 -8.607047 -24.844128 0.169658 72.248052 -19.726852 -6.945735 0.000000 0.000000 0.000000 -10.828044 30.624576 9.087495 6.715011 32.018250 -1.765810 -71.343609 38.263058 -33.715449 0.000000 0.000000 0.000000 
2.948136 0.930649 -0.175647 0.539285 -46.145003 4.326059 4.832531 1.405207 -19.722560 -3.263959 3.096295 17.900691 1.779241 5.028446 -4.839231 0.000000 0.000000 0.000000 -14.374149 4.257390 -29.227292 9.807250 3.215957 33.600972 -4.927839 -19.824715 16.816188 0.000000 0.000000 0.000000 0.818484 2.929698 30.995857 4.517446 -0.832960 7.666518 -0.137290 -2.389580 6.267889 -2.994684 1.226993 -11.842804 0.000000 0.000000 0.000000 16.790791 -23.759258 4.382058 -4.445416 -24.907986 -0.054257 58.545272 -11.805428 -1.222431 0.000000 0.000000 0.000000 -15.185128 28.741376 8.658946 1.417172 30.045309 -2.869953 -62.427554 32.219829 -23.988943 0.000000 0.000000 0.000000 
2.954862 0.933718 -0.180013 1.371429 -44.677613 4.548378 3.818379 1.122459 -20.718321 -3.074230 2.641039 16.700623 1.552596 4.078467 -3.267726 0.000000 0.000000 0.000000 -13.800336 3.804768 -27.209363 6.992910 3.227065 30.654794 -1.983918 -14.553943 14.749073 0.000000 0.000000 0.000000 0.774295 2.730755 30.726292 3.705925 -0.573281 7.115322 1.751208 -0.929236 5.681149 -3.499236 1.780093 -10.728933 0.000000 0.000000 0.000000 19.321898 -21.732223 3.280815 -1.382680 -22.132532 -0.414391 47.584356 -8.593419 0.040122 0.000000 0.000000 0.000000 -17.458492 28.913849 8.532186 -1.661434 27.270620 -3.061849 -55.121379 29.203708 -18.382595 0.000000 0.000000 0.000000 
2.959344 0.933847 -0.185411 2.260057 -43.084570 4.651333 3.109396 0.901366 -21.483763 -3.276604 2.366259 15.449530 1.172488 3.000746 -2.342153 0.000000 0.000000 0.000000 -13.900337 3.507882 -26.040815 5.910836 2.651107 27.188803 -1.308996 -13.473110 14.850045 0.000000 0.000000 0.000000 1.176813 2.397463 30.425984 3.397836 -0.622887 6.081604 2.664150 0.451230 6.168499 -3.927144 2.269249 -9.449238 0.000000 0.000000 0.000000 21.107842 -19.017313 2.340639 0.311858 -20.338674 -0.547262 39.393611 -10.129149 -0.658856 0.000000 0.000000 0.000000 -18.009325 28.535475 8.309147 -4.270171 25.820223 -3.275440 -50.770412 28.518484 -15.843545 0.000000 0.000000 0.000000 
2.962224 0.934059 -0.191617 2.929188 -41.974188 4.496915 2.735129 0.863436 -22.702161 -3.426716 2.426444 15.975924 0.779329 1.982652 -1.551874 0.000000 0.000000 0.000000 -14.061987 3.317491 -25.310282 5.016670 2.166656 23.961205 -0.201758 -13.193583 17.969848 0.000000 0.000000 0.000000 1.237098 2.358039 30.744195 3.490143 -0.828557 5.207535 3.669325 1.815169 6.571735 -4.682526 2.977941 -8.441113 0.000000 0.000000 0.000000 21.989551 -16.845447 1.845420 -0.357108 -18.804033 -0.553596 35.656489 -12.004952 -1.208074 0.000000 0.000000 0.000000 -19.287384 28.510313 8.056249 -5.322986 26.058561 -3.449246 -47.511914 26.248389 -13.196367 0.000000 0.000000 0.000000 
2.964138 0.934521 -0.197136 3.626844 -41.079355 4.592547 2.538131 0.896364 -23.890727 -3.942568 2.572220 16.138302 0.434999 1.140782 -0.660944 0.000000 0.000000 0.000000 -14.155074 3.177112 -24.649156 4.082290 1.842365 21.254592 -0.856102 -14.416024 18.560870 0.000000 0.000000 0.000000 1.678892 2.161416 30.818746 3.270842 -0.813028 4.623606 4.299242 2.362568 6.704773 -4.175628 2.737635 -7.362027 0.000000 0.000000 0.000000 20.985873 -15.240502 1.775820 -0.759047 -17.784656 -0.574566 37.248275 -15.381855 -2.223311 0.000000 0.000000 0.000000 -19.445953 28.663457 7.975112 -6.759607 26.483485 -3.768810 -45.370799 24.826939 -11.635414 0.000000 0.000000 0.000000 
2.965477 0.935599 -0.201396 3.785976 -39.852084 4.652773 2.170067 0.745477 -24.313094 -3.078013 2.169188 16.095466 -0.476440 -0.759939 -0.223343 0.000000 0.000000 0.000000 -14.289846 2.980369 -23.720615 4.213997 1.486307 19.463366 -1.691262 -15.536089 18.731957 0.000000 0.000000 0.000000 2.255953 1.987890 31.427125 3.643115 -1.021271 4.744323 4.322329 3.431630 6.483966 -3.516774 2.339093 -7.549823 0.000000 0.000000 0.000000 20.819319 -13.632747 1.705545 -1.216357 -17.537434 -0.604554 40.533593 -18.665648 -3.629383 0.000000 0.000000 0.000000 -20.790330 28.167845 7.588362 -6.301555 26.584234 -3.564084 -44.703916 23.374781 -10.519819 0.000000 0.000000 0.000000 
2.966224 0.936283 -0.204074 3.916941 -38.939136 4.730231 2.079183 0.649825 -24.367655 -2.496278 1.832042 15.592339 -1.445115 -2.702906 0.174876 0.000000 0.000000 0.000000 -14.177803 2.833399 -22.960405 4.405532 1.156930 17.554159 -3.454425 -18.206758 19.798249 0.000000 0.000000 0.000000 2.996302 1.744935 31.847346 3.496640 -1.010408 4.478812 4.596637 3.586214 6.487938 -2.692508 1.787601 -7.313783 0.000000 0.000000 0.000000 18.559755 -13.168214 2.001379 -0.985899 -16.554650 -0.637495 46.710360 -22.041405 -5.658380 0.000000 0.000000 0.000000 -20.334592 28.060972 7.519670 -7.088600 26.602434 -3.656630 -44.687577 23.938516 -10.619225 0.000000 0.000000 0.000000 
2.966507 0.936860 -0.205739 3.862359 -38.896694 4.657149 2.090508 0.632914 -24.223707 -1.777019 1.505387 15.014639 -2.008343 -3.731142 1.069703 0.000000 0.000000 0.000000 -14.214707 2.747363 -22.221861 5.461318 0.867345 16.400842 -4.976721 -19.982787 19.337551 0.000000 0.000000 0.000000 3.620351 1.723742 32.799674 3.193453 -0.955548 3.721472 4.343509 4.231297 6.996059 -2.188673 1.437946 -8.090527 0.000000 0.000000 0.000000 17.498072 -12.847683 2.133711 -1.054558 -16.557951 -0.659972 52.153911 -23.649558 -7.338405 0.000000 0.000000 0.000000 -20.564829 27.504553 7.284584 -7.785220 26.829576 -3.762157 -44.012485 23.231254 -10.009808 0.000000 0.000000 0.000000 
